name analog
datacolumns 19
datarows 23
range 0.0 0.011
endheader
time	ground_force_vx	ground_force_vy	ground_force_vz	ground_force_px	ground_force_py	ground_force_pz	l_ground_force_vx	l_ground_force_vy	l_ground_force_vz	l_ground_force_px	l_ground_force_py	l_ground_force_pz	ground_torque_x	ground_torque_y	ground_torque_z	l_ground_torque_x	l_ground_torque_y	l_ground_torque_z
0.0	-0.0	-0.0	-0.0	0.1262750625610351	18.712736129760746	-205.1333770751953	-0.2453869432210922	-21.35319328308105	-296.6564025878906	-0.0	-0.0	-0.0	-0.0	-0.0	-0.0	88087.6875	14125.857421875	-2003.4945068359373
0.0005	-0.0	-0.0	-0.0	0.15740767121315	18.643903732299805	-207.5450134277344	-0.6418750286102295	-21.24390983581543	-297.43603515625	-0.0	-0.0	-0.0	-0.0	-0.0	-0.0	88183.2421875	14169.0537109375	-2171.327392578125
0.001	-0.0	-0.0	-0.0	0.1361753344535827	18.46054458618164	-206.257080078125	-0.5637772679328918	-20.984529495239254	-296.4710998535156	-0.0	-0.0	-0.0	-0.0	-0.0	-0.0	88102.109375	14159.31640625	-2115.390380859375
0.0015	-0.0	-0.0	-0.0	-0.2037980854511261	18.85312843322754	-208.7876892089844	-0.7308487892150879	-20.953310012817383	-295.8980407714844	-0.0	-0.0	-0.0	-0.0	-0.0	-0.0	87843.6640625	13835.4404296875	-2246.15576171875
0.002	-0.0	-0.0	-0.0	-0.2355214357376098	18.742351531982425	-207.31661987304688	-0.5642006397247314	-21.296125411987305	-295.0750427246094	-0.0	-0.0	-0.0	-0.0	-0.0	-0.0	87946.484375	13946.9130859375	-2077.547119140625
0.0025	-0.0	-0.0	-0.0	0.29229336977005	18.385501861572266	-207.89520263671875	-0.8122094869613647	-21.253568649291992	-294.641845703125	-0.0	-0.0	-0.0	-0.0	-0.0	-0.0	87693.09375	14042.4169921875	-1978.1142578125
0.003	-0.0	-0.0	-0.0	0.0675393342971801	18.15842628479004	-205.04884338378903	-0.3200163841247558	-21.253337860107425	-293.4994506835937	-0.0	-0.0	-0.0	-0.0	-0.0	-0.0	87288.3203125	14113.33203125	-2037.1951904296875
0.0035	-0.0	-0.0	-0.0	-0.5590744614601135	17.969661712646484	-206.52395629882807	-0.2099437117576599	-21.384641647338867	-293.5512084960937	-0.0	-0.0	-0.0	-0.0	-0.0	-0.0	87121.8515625	13907.9423828125	-1937.36865234375
0.004	-0.0	-0.0	-0.0	0.3239788115024566	18.506290435791016	-207.31661987304688	-0.4995798170566559	-21.14142417907715	-292.32568359375	-0.0	-0.0	-0.0	-0.0	-0.0	-0.0	86835.5625	13840.587890625	-1930.2445068359373
0.0045000000000000005	-0.0	-0.0	-0.0	0.100242406129837	18.28275489807129	-206.872314453125	0.077738769352436	-21.396625518798828	-292.153564453125	-0.0	-0.0	-0.0	-0.0	-0.0	-0.0	87196.8828125	13763.3681640625	-2011.52734375
0.005	-0.0	-0.0	-0.0	0.1895173192024231	18.405208587646484	-207.84552001953125	0.0887107849121093	-20.89885711669922	-292.9833068847656	-0.0	-0.0	-0.0	-0.0	-0.0	-0.0	86847.9921875	13844.4296875	-1807.370849609375
0.0055	-0.0	-0.0	-0.0	0.3456682562828064	18.2607479095459	-208.81710815429688	0.0998239144682884	-21.263397216796875	-291.3236694335937	-0.0	-0.0	-0.0	-0.0	-0.0	-0.0	87163.90625	13808.1611328125	-1840.7841796875
0.006	-0.0	-0.0	-0.0	0.4348241686820984	18.79529571533203	-206.87454223632807	0.2884672284126282	-21.175594329833984	-291.8468017578125	-0.0	-0.0	-0.0	-0.0	-0.0	-0.0	87035.5	13527.8642578125	-1677.5625
0.006500000000000001	-0.0	-0.0	-0.0	0.356842041015625	18.628253936767575	-208.5953369140625	0.5547084808349609	-20.932239532470703	-292.2840881347656	-0.0	-0.0	-0.0	-0.0	-0.0	-0.0	86642.7890625	13535.3388671875	-1725.4365234375
0.007	-0.0	-0.0	-0.0	0.5579844117164612	18.98477554321289	-207.54150390625	0.3983581960201263	-20.744346618652344	-292.017578125	-0.0	-0.0	-0.0	-0.0	-0.0	-0.0	86525.2890625	13671.4541015625	-1621.9569091796875
0.0075	-0.0	-0.0	-0.0	0.391116738319397	18.861400604248047	-207.05389404296875	0.2228728532791137	-21.10888290405273	-291.5863342285156	-0.0	-0.0	-0.0	-0.0	-0.0	-0.0	86545.1953125	13334.751953125	-1721.917724609375
0.008	-0.0	-0.0	-0.0	0.6244735717773438	19.02802848815918	-209.5616455078125	0.6754348278045654	-20.954973220825195	-291.88043212890625	-0.0	-0.0	-0.0	-0.0	-0.0	-0.0	86487.90625	13549.2705078125	-1695.6923828125
0.0085	-0.0	-0.0	-0.0	0.8375656604766846	19.07390594482422	-209.88038635253903	0.4320597350597381	-21.032005310058597	-292.4080810546875	-0.0	-0.0	-0.0	-0.0	-0.0	-0.0	86550.171875	13384.04296875	-1625.0263671875
0.009000000000000001	-0.0	-0.0	-0.0	0.7369266748428345	18.97692108154297	-209.8348846435547	-0.0540364682674407	-20.932239532470703	-291.7997741699219	-0.0	-0.0	-0.0	-0.0	-0.0	-0.0	86461.109375	13544.34765625	-1662.676513671875
0.0095	-0.0	-0.0	-0.0	0.9228217601776124	19.186412811279297	-209.17515563964844	0.0887107849121093	-21.132051467895508	-289.8874206542969	-0.0	-0.0	-0.0	-0.0	-0.0	-0.0	86356.078125	13430.4951171875	-1781.2562255859375
0.01	-0.0	-0.0	-0.0	0.7724508047103882	19.252166748046875	-209.88194274902344	0.4971964359283447	-20.85555648803711	-288.7212829589844	-0.0	-0.0	-0.0	-0.0	-0.0	-0.0	86181.90625	13344.25	-1854.234130859375
0.0105	-0.0	-0.0	-0.0	1.040355205535889	19.02016830444336	-209.52919006347656	0.0769670829176902	-21.073806762695312	-288.9588623046875	-0.0	-0.0	-0.0	-0.0	-0.0	-0.0	85982.4765625	13581.30859375	-1810.87744140625
0.011	-0.0	-0.0	-0.0	0.7493403553962708	19.549314498901367	-211.0836944580078	-0.2070285975933075	-20.826210021972656	-289.2140808105469	-0.0	-0.0	-0.0	-0.0	-0.0	-0.0	85621.5703125	13709.2314453125	-1951.405517578125
